<svg xmlns="http://www.w3.org/2000/svg" width="200" height="200" viewBox="0 0 200 200">
<!-- SVG created with Arrow, by QuiverAI (https://quiver.ai) -->
  <path d="m178.1 4.58h-156.2c-10.11 0-17.31 8.16-17.31 17.44v155.5c0 9.78 7.54 17.94 17.31 17.94h156.2c9.58 0 17.31-7.89 17.31-17.79v-155.6c0-9.58-7.59-17.44-17.31-17.44z" fill="#2B394D"/>
  <path d="m178.1 5.43c9.26 0 16.46 7.59 16.46 16.59v155.6c0 9.44-7.35 16.94-16.46 16.94h-156.2c-9.27 0-16.46-7.59-16.46-17.09v-155.5c0-9.16 7.28-16.59 16.46-16.59h156.2zm0-0.85h-156.2c-9.77 0-17.31 8.16-17.31 17.44v155.5c0 9.78 7.54 17.94 17.31 17.94h156.2c9.58 0 17.31-7.89 17.31-17.79v-155.6c0-9.58-7.59-17.44-17.31-17.44z" fill="#222E3A"/>
  <path d="m171.2 81.13-23.32-23.53c-0.65-0.67-1.39-1.01-2.28-1.01h-27.68c-6.02 0-9.51 5.47-9.51 10.22v66.69c0 6.16 5.12 9.42 9.51 9.42h44.33c6.07 0 9.48-5.21 9.48-9.06v-50.2c0-0.95-0.04-1.95-0.53-2.53zm-21.78-12.87 12.21 11.85h-9.22c-2.23 0-3.21-2.13-3.21-3.2l0.22-8.65zm16.04 65c0 2.28-2.14 3.19-3.26 3.19h-44.12c-2.16 0-3.33-1.71-3.33-2.95v-66.69c0-1.9 1.57-3.41 3.17-3.41h25.4v13.51c0 5.91 4.61 9.57 9.09 9.57h13.05v46.78z" fill="#28D1F6"/>
  <path d="m154 101.6h-27.78c-2.38 0-3.95 1.59-3.95 3.31 0 2.08 1.61 3.13 3.76 3.13h27.71c2.17 0 3.32-1.87 3.32-3.13 0-1.87-1.38-3.31-3.06-3.31z" fill="#28D1F6"/>
  <path d="m154 115.6h-27.78c-2.16 0-3.81 1.64-3.81 3.2 0 1.98 1.46 3.15 3.49 3.15h27.92c2.09 0 3.15-1.88 3.24-3.15 0-1.81-1.38-3.2-3.06-3.2z" fill="#28D1F6"/>
  <path d="m34.36 84.11c-4.84 0-6.88 8-6.88 15.89 0 8.46 1.7 16.09 6.88 16.09 4.93 0 6.35-8.35 6.35-15.65 0-7.43-1.36-16.33-6.35-16.33z" fill="#28D1F6"/>
  <path d="m53.66 59.53c-5.22 1.39-5.87 11.88-5.87 18.86v45.18c0 7.34 1.5 16.45 6.13 16.45 4.85 0 6.35-8.74 6.35-16.45v-45.81c0-7.62-1.76-18.64-6.61-18.23z" fill="#28D1F6"/>
  <path d="m73.88 73.47c-5.8 0-6.36 11.96-6.36 19.51v16.11c0 6.99 1.07 17.49 6.36 17.29 4.71-0.18 6.47-8.46 6.47-15.28v-20.19c0-6.99-1.73-17.44-6.47-17.44z" fill="#28D1F6"/>
  <path d="m93.53 88.36c-4.75 0-6.55 7.15-6.55 11.65 0 5.42 1.63 11.55 6.48 11.55 4.67 0 6.22-7.47 6.22-11.56 0-4.69-2.27-11.64-6.15-11.64z" fill="#28D1F6"/>
</svg>